# xmcd CD database file
# Copyright (C) 1993-1996 Ti Kan
#
# Track frame offsets:
# 183
# 26070
# 47045
# 68895
# 90045
# 114368
# 134858
# 154863
# 170495
# 188433
# 206513
# 226575
# 245635
# 264025
# 282533
# 300683
# 319228
#
# Disc length: 4496 seconds
# Revision: 0
# Processed by: cddbd v1.4b41PL1 Copyright (c) Steve Scherf et al.
# Submitted via: CDSpectrumPro v3.2.327
#
DISCID=e4118e11
DTITLE=达明一派 - 继续追寻－达明精选
DYEAR=1900
DGENRE=
TTITLE0=继续追寻
TTITLE1=忘记她是他
TTITLE2=马路天使
TTITLE3=模特儿
TTITLE4=天问
TTITLE5=石头记
TTITLE6=你还爱我吗
TTITLE7=今夜星光灿烂
TTITLE8=迷惘夜车
TTITLE9=天花乱坠
TTITLE10=无风的秋季
TTITLE11=十个救火的少年
TTITLE12=Kiss Me Goodbye
TTITLE13=禁色
TTITLE14=溜冰贵族
TTITLE15=迷恋
TTITLE16=长征
EXTD=
EXTT0=
EXTT1=
EXTT2=
EXTT3=
EXTT4=
EXTT5=
EXTT6=
EXTT7=
EXTT8=
EXTT9=
EXTT10=
EXTT11=
EXTT12=
EXTT13=
EXTT14=
EXTT15=
EXTT16=
PLAYORDER=
